<?xml version="1.0" encoding="utf-8"?>
<!-- Generator: Adobe Illustrator 24.1.0, SVG Export Plug-In . SVG Version: 6.00 Build 0)  -->
<svg version="1.1" id="Layer_1" xmlns="http://www.w3.org/2000/svg" xmlns:xlink="http://www.w3.org/1999/xlink" x="0px" y="0px"
	 viewBox="0 0 48 48" style="enable-background:new 0 0 48 48;" xml:space="preserve">
<path d="M46,20c0-1.654-1.346-3-3-3h-0.535C43.418,15.938,44,14.536,44,13c0-3.309-2.691-6-6-6s-6,2.691-6,6
	c0,1.538,0.589,2.937,1.544,4h-5.079C29.418,15.938,30,14.536,30,13c0-3.309-2.691-6-6-6s-6,2.691-6,6c0,1.539,0.592,2.937,1.548,4
	h-5.095c0.956-1.063,1.547-2.461,1.547-4c0-3.309-2.692-6-6.001-6s-6,2.691-6,6c0,1.537,0.586,2.937,1.54,4H5c-1.654,0-3,1.346-3,3
	v1c0,0.546,0.157,1.051,0.413,1.492c-0.269,0.81-0.412,1.65-0.412,2.508v16h2V25c0-0.388,0.038-0.772,0.112-1.149
	C4.395,23.939,4.689,24,5,24c1.654,0,3-1.346,3-3v-1c0-0.215-0.025-0.423-0.068-0.625C8.593,19.133,9.293,19,10,19
	c3.309,0,6,2.691,6,6v16h2V22c0-0.552-0.447-1-1-1h-0.095c-0.44-0.756-0.998-1.427-1.652-2h17.47c-0.65,0.572-1.206,1.247-1.643,2
	H31c-0.553,0-1,0.448-1,1v19h2V25c0-3.309,2.691-6,6-6c0.707,0,1.407,0.133,2.068,0.375C40.025,19.577,40,19.785,40,20v1
	c0,1.654,1.346,3,3,3c0.311,0,0.606-0.061,0.888-0.149C43.962,24.228,44,24.611,44,25v16h2V25c0-0.858-0.143-1.699-0.412-2.509
	C45.843,22.05,46,21.545,46,21V20z M6,21c0,0.551-0.448,1-1,1s-1-0.449-1-1v-1c0-0.551,0.448-1,1-1s1,0.449,1,1V21z M10,17
	c-2.206,0-4-1.794-4-4s1.794-4,4-4s4.001,1.794,4.001,4S12.206,17,10,17z M24,17c-2.206,0-4-1.794-4-4s1.794-4,4-4s4,1.794,4,4
	S26.206,17,24,17z M38,17c-2.206,0-4-1.794-4-4s1.794-4,4-4s4,1.794,4,4S40.206,17,38,17z M44,21c0,0.551-0.448,1-1,1s-1-0.449-1-1
	v-1c0-0.551,0.448-1,1-1s1,0.449,1,1V21z"/>
</svg>
